<svg width="25" height="25" viewBox="0 0 20 20" fill="none" xmlns="http://www.w3.org/2000/svg">
<path d="M10 2C8.61505 2 7.43596 2.73543 6.72786 3.8138C6.63474 3.8743 6.55821 3.9571 6.50521 4.05469C6.48617 4.08894 6.47504 4.1267 6.45703 4.16146C6.19756 4.09319 5.948 4 5.66667 4C3.64962 4 2 5.64962 2 7.66667C2 9.0762 2.82771 10.2625 4 10.8724V14.5547C3.9881 14.6267 3.9881 14.7001 4 14.7721V17.3333C4.00002 17.5101 4.07026 17.6797 4.19528 17.8047C4.3203 17.9297 4.48986 18 4.66667 18H15.3333C15.5101 18 15.6797 17.9297 15.8047 17.8047C15.9297 17.6797 16 17.5101 16 17.3333V14.7786C16.0119 14.7067 16.0119 14.6332 16 14.5612V10.931C16.0822 10.8849 16.1536 10.8218 16.2096 10.7461C17.2673 10.1082 18 8.98875 18 7.66667C18 5.64962 16.3504 4 14.3333 4C14.0335 4 13.7704 4.10724 13.4922 4.17578C12.8259 2.90068 11.5363 2 10 2ZM10 3.33333C11.1724 3.33333 12.1459 4.08807 12.5078 5.13542C12.5379 5.22222 12.5856 5.30187 12.6479 5.36937C12.7102 5.43688 12.7857 5.49078 12.8698 5.5277C12.954 5.56462 13.0448 5.58377 13.1366 5.58393C13.2285 5.58409 13.3194 5.56527 13.4036 5.52865C13.6918 5.40342 14.0034 5.33333 14.3333 5.33333C15.6296 5.33333 16.6667 6.37038 16.6667 7.66667C16.6667 8.68528 16.0167 9.53259 15.1107 9.85417C15.0811 9.86514 15.0524 9.87819 15.0247 9.89323C14.7226 9.98726 14.4005 10.0222 14.0755 9.98568C13.8997 9.96582 13.7233 10.0166 13.5849 10.1269C13.4466 10.2371 13.3577 10.3978 13.3379 10.5736C13.318 10.7493 13.3688 10.9258 13.4791 11.0641C13.5893 11.2025 13.75 11.2913 13.9258 11.3112C14.1751 11.3392 14.4224 11.3323 14.6667 11.3099V14H12.6667V13.3333C12.6679 13.2441 12.6512 13.1556 12.6176 13.073C12.584 12.9904 12.5341 12.9153 12.471 12.8523C12.4079 12.7893 12.3327 12.7396 12.25 12.7061C12.1673 12.6727 12.0788 12.6562 11.9896 12.6576C11.813 12.6603 11.6447 12.733 11.5217 12.8597C11.3987 12.9864 11.3309 13.1567 11.3333 13.3333V14H8.66667V12C8.66789 11.9108 8.6512 11.8223 8.61759 11.7396C8.58398 11.657 8.53413 11.582 8.47099 11.519C8.40786 11.456 8.33272 11.4062 8.25003 11.3728C8.16734 11.3393 8.07877 11.3228 7.98958 11.3242C7.813 11.327 7.64473 11.3997 7.52169 11.5264C7.39866 11.6531 7.33092 11.8234 7.33333 12V14H5.33333V10.4831C5.33343 10.3452 5.29079 10.2107 5.21127 10.0981C5.13175 9.98543 5.01927 9.90022 4.88932 9.85417C3.98329 9.53259 3.33333 8.68528 3.33333 7.66667C3.33333 6.37038 4.37038 5.33333 5.66667 5.33333C5.79853 5.33333 5.92509 5.35226 6.05078 5.3737C5.97467 5.85 5.98264 6.34214 6.08594 6.82813C6.10414 6.91381 6.13903 6.99506 6.18864 7.06725C6.23824 7.13944 6.30158 7.20116 6.37504 7.24887C6.44849 7.29658 6.53063 7.32935 6.61675 7.34531C6.70288 7.36128 6.7913 7.36012 6.87698 7.34191C6.96265 7.3237 7.0439 7.28878 7.11609 7.23917C7.18827 7.18955 7.24997 7.1262 7.29767 7.05274C7.34537 6.97927 7.37813 6.89713 7.39408 6.81101C7.41003 6.72488 7.40885 6.63645 7.39063 6.55078C7.295 6.10088 7.32601 5.64133 7.45833 5.21354C7.47127 5.18825 7.48258 5.16215 7.49219 5.13542C7.85413 4.08807 8.82757 3.33333 10 3.33333ZM5.33333 15.3333H7.88802C7.96002 15.3452 8.03347 15.3452 8.10547 15.3333H11.888C11.96 15.3452 12.0335 15.3452 12.1055 15.3333H14.6667V16.6667H5.33333V15.3333Z" fill="#212121"/>
</svg>
