<svg width="200" height="200" viewBox="0 0 21 21" fill="none" xmlns="http://www.w3.org/2000/svg">
<path d="M4.2001 2.36255C3.76829 2.36255 3.4126 2.71824 3.4126 3.15005V17.85C3.4126 18.2819 3.76829 18.6375 4.2001 18.6375H16.8001C17.2319 18.6375 17.5876 18.2819 17.5876 17.85V3.15005C17.5876 2.71824 17.2319 2.36255 16.8001 2.36255H4.2001ZM4.2001 2.88755H5.5126V18.1125H4.2001C4.05178 18.1125 3.9376 17.9984 3.9376 17.85V3.15005C3.9376 3.00173 4.05178 2.88755 4.2001 2.88755ZM6.0376 2.88755H16.8001C16.9484 2.88755 17.0626 3.00173 17.0626 3.15005V17.85C17.0626 17.9984 16.9484 18.1125 16.8001 18.1125H6.0376V2.88755ZM6.8251 3.41255C6.75548 3.41255 6.68871 3.44021 6.63948 3.48943C6.59025 3.53866 6.5626 3.60543 6.5626 3.67505C6.5626 3.74467 6.59025 3.81144 6.63948 3.86066C6.68871 3.90989 6.75548 3.93755 6.8251 3.93755C6.89472 3.93755 6.96149 3.90989 7.01071 3.86066C7.05994 3.81144 7.0876 3.74467 7.0876 3.67505C7.0876 3.60543 7.05994 3.53866 7.01071 3.48943C6.96149 3.44021 6.89472 3.41255 6.8251 3.41255ZM7.8751 3.41255C7.80548 3.41255 7.73871 3.44021 7.68948 3.48943C7.64025 3.53866 7.6126 3.60543 7.6126 3.67505C7.6126 3.74467 7.64025 3.81144 7.68948 3.86066C7.73871 3.90989 7.80548 3.93755 7.8751 3.93755C7.94472 3.93755 8.01149 3.90989 8.06071 3.86066C8.10994 3.81144 8.1376 3.74467 8.1376 3.67505C8.1376 3.60543 8.10994 3.53866 8.06071 3.48943C8.01149 3.44021 7.94472 3.41255 7.8751 3.41255ZM8.9251 3.41255C8.85548 3.41255 8.78871 3.44021 8.73948 3.48943C8.69025 3.53866 8.6626 3.60543 8.6626 3.67505C8.6626 3.74467 8.69025 3.81144 8.73948 3.86066C8.78871 3.90989 8.85548 3.93755 8.9251 3.93755C8.99472 3.93755 9.06149 3.90989 9.11071 3.86066C9.15994 3.81144 9.1876 3.74467 9.1876 3.67505C9.1876 3.60543 9.15994 3.53866 9.11071 3.48943C9.06149 3.44021 8.99472 3.41255 8.9251 3.41255ZM9.9751 3.41255C9.90548 3.41255 9.83871 3.44021 9.78948 3.48943C9.74025 3.53866 9.7126 3.60543 9.7126 3.67505C9.7126 3.74467 9.74025 3.81144 9.78948 3.86066C9.83871 3.90989 9.90548 3.93755 9.9751 3.93755C10.0447 3.93755 10.1115 3.90989 10.1607 3.86066C10.2099 3.81144 10.2376 3.74467 10.2376 3.67505C10.2376 3.60543 10.2099 3.53866 10.1607 3.48943C10.1115 3.44021 10.0447 3.41255 9.9751 3.41255ZM11.0251 3.41255C10.9555 3.41255 10.8887 3.44021 10.8395 3.48943C10.7903 3.53866 10.7626 3.60543 10.7626 3.67505C10.7626 3.74467 10.7903 3.81144 10.8395 3.86066C10.8887 3.90989 10.9555 3.93755 11.0251 3.93755C11.0947 3.93755 11.1615 3.90989 11.2107 3.86066C11.2599 3.81144 11.2876 3.74467 11.2876 3.67505C11.2876 3.60543 11.2599 3.53866 11.2107 3.48943C11.1615 3.44021 11.0947 3.41255 11.0251 3.41255ZM12.0751 3.41255C12.0055 3.41255 11.9387 3.44021 11.8895 3.48943C11.8403 3.53866 11.8126 3.60543 11.8126 3.67505C11.8126 3.74467 11.8403 3.81144 11.8895 3.86066C11.9387 3.90989 12.0055 3.93755 12.0751 3.93755C12.1447 3.93755 12.2115 3.90989 12.2607 3.86066C12.3099 3.81144 12.3376 3.74467 12.3376 3.67505C12.3376 3.60543 12.3099 3.53866 12.2607 3.48943C12.2115 3.44021 12.1447 3.41255 12.0751 3.41255ZM13.1251 3.41255C13.0555 3.41255 12.9887 3.44021 12.9395 3.48943C12.8903 3.53866 12.8626 3.60543 12.8626 3.67505C12.8626 3.74467 12.8903 3.81144 12.9395 3.86066C12.9887 3.90989 13.0555 3.93755 13.1251 3.93755C13.1947 3.93755 13.2615 3.90989 13.3107 3.86066C13.3599 3.81144 13.3876 3.74467 13.3876 3.67505C13.3876 3.60543 13.3599 3.53866 13.3107 3.48943C13.2615 3.44021 13.1947 3.41255 13.1251 3.41255ZM14.1751 3.41255C14.1055 3.41255 14.0387 3.44021 13.9895 3.48943C13.9403 3.53866 13.9126 3.60543 13.9126 3.67505C13.9126 3.74467 13.9403 3.81144 13.9895 3.86066C14.0387 3.90989 14.1055 3.93755 14.1751 3.93755C14.2447 3.93755 14.3115 3.90989 14.3607 3.86066C14.4099 3.81144 14.4376 3.74467 14.4376 3.67505C14.4376 3.60543 14.4099 3.53866 14.3607 3.48943C14.3115 3.44021 14.2447 3.41255 14.1751 3.41255ZM15.2251 3.41255C15.1555 3.41255 15.0887 3.44021 15.0395 3.48943C14.9903 3.53866 14.9626 3.60543 14.9626 3.67505C14.9626 3.74467 14.9903 3.81144 15.0395 3.86066C15.0887 3.90989 15.1555 3.93755 15.2251 3.93755C15.2947 3.93755 15.3615 3.90989 15.4107 3.86066C15.4599 3.81144 15.4876 3.74467 15.4876 3.67505C15.4876 3.60543 15.4599 3.53866 15.4107 3.48943C15.3615 3.44021 15.2947 3.41255 15.2251 3.41255ZM16.2751 3.41255C16.2055 3.41255 16.1387 3.44021 16.0895 3.48943C16.0403 3.53866 16.0126 3.60543 16.0126 3.67505C16.0126 3.74467 16.0403 3.81144 16.0895 3.86066C16.1387 3.90989 16.2055 3.93755 16.2751 3.93755C16.3447 3.93755 16.4115 3.90989 16.4607 3.86066C16.5099 3.81144 16.5376 3.74467 16.5376 3.67505C16.5376 3.60543 16.5099 3.53866 16.4607 3.48943C16.4115 3.44021 16.3447 3.41255 16.2751 3.41255ZM16.2751 4.46255C16.2055 4.46255 16.1387 4.4902 16.0895 4.53943C16.0403 4.58866 16.0126 4.65543 16.0126 4.72505C16.0126 4.79467 16.0403 4.86144 16.0895 4.91066C16.1387 4.95989 16.2055 4.98755 16.2751 4.98755C16.3447 4.98755 16.4115 4.95989 16.4607 4.91066C16.5099 4.86144 16.5376 4.79467 16.5376 4.72505C16.5376 4.65543 16.5099 4.58866 16.4607 4.53943C16.4115 4.4902 16.3447 4.46255 16.2751 4.46255ZM16.2751 5.51255C16.2055 5.51255 16.1387 5.5402 16.0895 5.58943C16.0403 5.63866 16.0126 5.70543 16.0126 5.77505C16.0126 5.84467 16.0403 5.91144 16.0895 5.96066C16.1387 6.00989 16.2055 6.03755 16.2751 6.03755C16.3447 6.03755 16.4115 6.00989 16.4607 5.96066C16.5099 5.91144 16.5376 5.84467 16.5376 5.77505C16.5376 5.70543 16.5099 5.63866 16.4607 5.58943C16.4115 5.5402 16.3447 5.51255 16.2751 5.51255ZM16.2751 6.56255C16.2055 6.56255 16.1387 6.5902 16.0895 6.63943C16.0403 6.68866 16.0126 6.75543 16.0126 6.82505C16.0126 6.89467 16.0403 6.96144 16.0895 7.01066C16.1387 7.05989 16.2055 7.08755 16.2751 7.08755C16.3447 7.08755 16.4115 7.05989 16.4607 7.01066C16.5099 6.96144 16.5376 6.89467 16.5376 6.82505C16.5376 6.75543 16.5099 6.68866 16.4607 6.63943C16.4115 6.5902 16.3447 6.56255 16.2751 6.56255ZM11.0123 7.08755C10.4726 7.08755 10.0297 7.37601 9.71978 7.76892C9.57571 7.69003 9.41145 7.61255 9.1876 7.61255C8.32662 7.61255 7.6126 8.32657 7.6126 9.18755C7.6126 9.77104 7.88673 10.3608 8.4001 10.6441V13.3875C8.4001 13.4572 8.42776 13.5239 8.47699 13.5732C8.52622 13.6224 8.59298 13.65 8.6626 13.65H13.3876C13.4572 13.65 13.524 13.6224 13.5732 13.5732C13.6224 13.5239 13.6501 13.4572 13.6501 13.3875V10.6462C14.1575 10.3695 14.4376 9.80179 14.4376 9.21882C14.4376 8.35784 13.7312 7.61255 12.8626 7.61255C12.6355 7.61255 12.4612 7.69098 12.3079 7.77148C11.998 7.37685 11.5533 7.08755 11.0123 7.08755ZM11.0123 7.61255C11.4539 7.61255 11.831 7.85747 12.0331 8.21804C12.0669 8.27837 12.1233 8.32288 12.1898 8.34189C12.2564 8.3609 12.3277 8.35288 12.3884 8.31956C12.5781 8.21512 12.7243 8.13755 12.8626 8.13755C13.423 8.13755 13.9126 8.65075 13.9126 9.21882C13.9126 9.69205 13.6729 10.12 13.2999 10.2524C13.2488 10.2706 13.2045 10.3041 13.1732 10.3484C13.1419 10.3928 13.1251 10.4458 13.1251 10.5V12.075L12.9149 12.1807L12.8734 12.4119L13.0338 12.5836L13.1251 12.6V13.125H8.9251V12.6L9.1353 12.4944L9.17683 12.2632L9.01636 12.0915L8.9251 12.075V10.5C8.92514 10.4458 8.90834 10.3928 8.87703 10.3484C8.84572 10.3041 8.80144 10.2706 8.75027 10.2524C8.38639 10.1232 8.1376 9.66077 8.1376 9.18755C8.1376 8.61948 8.61953 8.13755 9.1876 8.13755C9.32585 8.13755 9.43766 8.21025 9.63621 8.31956C9.6969 8.35304 9.76838 8.36115 9.83504 8.34214C9.90169 8.32312 9.95813 8.27851 9.99202 8.21804C10.1944 7.8573 10.5707 7.61255 11.0123 7.61255ZM16.2751 7.61255C16.2055 7.61255 16.1387 7.6402 16.0895 7.68943C16.0403 7.73866 16.0126 7.80543 16.0126 7.87505C16.0126 7.94467 16.0403 8.01144 16.0895 8.06066C16.1387 8.10989 16.2055 8.13755 16.2751 8.13755C16.3447 8.13755 16.4115 8.10989 16.4607 8.06066C16.5099 8.01144 16.5376 7.94467 16.5376 7.87505C16.5376 7.80543 16.5099 7.73866 16.4607 7.68943C16.4115 7.6402 16.3447 7.61255 16.2751 7.61255ZM16.2751 8.66255C16.2055 8.66255 16.1387 8.6902 16.0895 8.73943C16.0403 8.78866 16.0126 8.85543 16.0126 8.92505C16.0126 8.99467 16.0403 9.06144 16.0895 9.11066C16.1387 9.15989 16.2055 9.18755 16.2751 9.18755C16.3447 9.18755 16.4115 9.15989 16.4607 9.11066C16.5099 9.06144 16.5376 8.99467 16.5376 8.92505C16.5376 8.85543 16.5099 8.78866 16.4607 8.73943C16.4115 8.6902 16.3447 8.66255 16.2751 8.66255ZM16.2751 9.71255C16.2055 9.71255 16.1387 9.7402 16.0895 9.78943C16.0403 9.83866 16.0126 9.90543 16.0126 9.97505C16.0126 10.0447 16.0403 10.1114 16.0895 10.1607C16.1387 10.2099 16.2055 10.2375 16.2751 10.2375C16.3447 10.2375 16.4115 10.2099 16.4607 10.1607C16.5099 10.1114 16.5376 10.0447 16.5376 9.97505C16.5376 9.90543 16.5099 9.83866 16.4607 9.78943C16.4115 9.7402 16.3447 9.71255 16.2751 9.71255ZM9.7085 10.234C9.63897 10.235 9.57271 10.2637 9.52426 10.3136C9.47582 10.3634 9.44915 10.4305 9.4501 10.5V11.025C9.44961 11.0598 9.45603 11.0944 9.469 11.1266C9.48197 11.1589 9.50123 11.1883 9.52566 11.2131C9.55008 11.2378 9.57918 11.2575 9.61128 11.2709C9.64337 11.2844 9.67781 11.2913 9.7126 11.2913C9.74739 11.2913 9.78183 11.2844 9.81392 11.2709C9.84601 11.2575 9.87512 11.2378 9.89954 11.2131C9.92396 11.1883 9.94322 11.1589 9.95619 11.1266C9.96916 11.0944 9.97559 11.0598 9.9751 11.025V10.5C9.97558 10.4649 9.96901 10.4301 9.95577 10.3975C9.94254 10.365 9.92291 10.3355 9.89805 10.3106C9.87319 10.2858 9.84361 10.2663 9.81105 10.2531C9.77849 10.2399 9.74362 10.2334 9.7085 10.234ZM11.021 10.234C10.9515 10.235 10.8852 10.2637 10.8368 10.3136C10.7883 10.3634 10.7616 10.4305 10.7626 10.5V11.025C10.7621 11.0598 10.7685 11.0944 10.7815 11.1266C10.7945 11.1589 10.8137 11.1883 10.8382 11.2131C10.8626 11.2378 10.8917 11.2575 10.9238 11.2709C10.9559 11.2844 10.9903 11.2913 11.0251 11.2913C11.0599 11.2913 11.0943 11.2844 11.1264 11.2709C11.1585 11.2575 11.1876 11.2378 11.212 11.2131C11.2365 11.1883 11.2557 11.1589 11.2687 11.1266C11.2817 11.0944 11.2881 11.0598 11.2876 11.025V10.5C11.2881 10.4649 11.2815 10.4301 11.2683 10.3975C11.255 10.365 11.2354 10.3355 11.2106 10.3106C11.1857 10.2858 11.1561 10.2663 11.1235 10.2531C11.091 10.2399 11.0561 10.2334 11.021 10.234ZM12.3335 10.234C12.264 10.235 12.1977 10.2637 12.1493 10.3136C12.1008 10.3634 12.0741 10.4305 12.0751 10.5V11.025C12.0746 11.0598 12.081 11.0944 12.094 11.1266C12.107 11.1589 12.1262 11.1883 12.1507 11.2131C12.1751 11.2378 12.2042 11.2575 12.2363 11.2709C12.2684 11.2844 12.3028 11.2913 12.3376 11.2913C12.3724 11.2913 12.4068 11.2844 12.4389 11.2709C12.471 11.2575 12.5001 11.2378 12.5245 11.2131C12.549 11.1883 12.5682 11.1589 12.5812 11.1266C12.5942 11.0944 12.6006 11.0598 12.6001 11.025V10.5C12.6006 10.4649 12.594 10.4301 12.5808 10.3975C12.5675 10.365 12.5479 10.3355 12.5231 10.3106C12.4982 10.2858 12.4686 10.2663 12.436 10.2531C12.4035 10.2399 12.3686 10.2334 12.3335 10.234ZM16.2751 10.7625C16.2055 10.7625 16.1387 10.7902 16.0895 10.8394C16.0403 10.8887 16.0126 10.9554 16.0126 11.025C16.0126 11.0947 16.0403 11.1614 16.0895 11.2107C16.1387 11.2599 16.2055 11.2875 16.2751 11.2875C16.3447 11.2875 16.4115 11.2599 16.4607 11.2107C16.5099 11.1614 16.5376 11.0947 16.5376 11.025C16.5376 10.9554 16.5099 10.8887 16.4607 10.8394C16.4115 10.7902 16.3447 10.7625 16.2751 10.7625ZM16.2751 11.8125C16.2055 11.8125 16.1387 11.8402 16.0895 11.8894C16.0403 11.9387 16.0126 12.0054 16.0126 12.075C16.0126 12.1447 16.0403 12.2114 16.0895 12.2607C16.1387 12.3099 16.2055 12.3375 16.2751 12.3375C16.3447 12.3375 16.4115 12.3099 16.4607 12.2607C16.5099 12.2114 16.5376 12.1447 16.5376 12.075C16.5376 12.0054 16.5099 11.9387 16.4607 11.8894C16.4115 11.8402 16.3447 11.8125 16.2751 11.8125ZM9.9751 12.075L9.76489 12.1807L9.72336 12.4119L9.88384 12.5836L9.9751 12.6L10.1853 12.4944L10.2268 12.2632L10.0664 12.0915L9.9751 12.075ZM11.0251 12.075L10.8149 12.1807L10.7734 12.4119L10.9338 12.5836L11.0251 12.6L11.2353 12.4944L11.2768 12.2632L11.1164 12.0915L11.0251 12.075ZM12.0751 12.075L11.8649 12.1807L11.8234 12.4119L11.9838 12.5836L12.0751 12.6L12.2853 12.4944L12.3268 12.2632L12.1664 12.0915L12.0751 12.075ZM16.2751 12.8625C16.2055 12.8625 16.1387 12.8902 16.0895 12.9394C16.0403 12.9887 16.0126 13.0554 16.0126 13.125C16.0126 13.1947 16.0403 13.2614 16.0895 13.3107C16.1387 13.3599 16.2055 13.3875 16.2751 13.3875C16.3447 13.3875 16.4115 13.3599 16.4607 13.3107C16.5099 13.2614 16.5376 13.1947 16.5376 13.125C16.5376 13.0554 16.5099 12.9887 16.4607 12.9394C16.4115 12.8902 16.3447 12.8625 16.2751 12.8625ZM16.2751 13.9125C16.2055 13.9125 16.1387 13.9402 16.0895 13.9894C16.0403 14.0387 16.0126 14.1054 16.0126 14.175C16.0126 14.2447 16.0403 14.3114 16.0895 14.3607C16.1387 14.4099 16.2055 14.4375 16.2751 14.4375C16.3447 14.4375 16.4115 14.4099 16.4607 14.3607C16.5099 14.3114 16.5376 14.2447 16.5376 14.175C16.5376 14.1054 16.5099 14.0387 16.4607 13.9894C16.4115 13.9402 16.3447 13.9125 16.2751 13.9125ZM16.2751 14.9625C16.2055 14.9625 16.1387 14.9902 16.0895 15.0394C16.0403 15.0887 16.0126 15.1554 16.0126 15.225C16.0126 15.2947 16.0403 15.3614 16.0895 15.4107C16.1387 15.4599 16.2055 15.4875 16.2751 15.4875C16.3447 15.4875 16.4115 15.4599 16.4607 15.4107C16.5099 15.3614 16.5376 15.2947 16.5376 15.225C16.5376 15.1554 16.5099 15.0887 16.4607 15.0394C16.4115 14.9902 16.3447 14.9625 16.2751 14.9625ZM16.2751 16.0125C16.2055 16.0125 16.1387 16.0402 16.0895 16.0894C16.0403 16.1387 16.0126 16.2054 16.0126 16.275C16.0126 16.3447 16.0403 16.4114 16.0895 16.4607C16.1387 16.5099 16.2055 16.5375 16.2751 16.5375C16.3447 16.5375 16.4115 16.5099 16.4607 16.4607C16.5099 16.4114 16.5376 16.3447 16.5376 16.275C16.5376 16.2054 16.5099 16.1387 16.4607 16.0894C16.4115 16.0402 16.3447 16.0125 16.2751 16.0125ZM6.8251 17.0625C6.75548 17.0625 6.68871 17.0902 6.63948 17.1394C6.59025 17.1887 6.5626 17.2554 6.5626 17.325C6.5626 17.3947 6.59025 17.4614 6.63948 17.5107C6.68871 17.5599 6.75548 17.5875 6.8251 17.5875C6.89472 17.5875 6.96149 17.5599 7.01071 17.5107C7.05994 17.4614 7.0876 17.3947 7.0876 17.325C7.0876 17.2554 7.05994 17.1887 7.01071 17.1394C6.96149 17.0902 6.89472 17.0625 6.8251 17.0625ZM7.8751 17.0625C7.80548 17.0625 7.73871 17.0902 7.68948 17.1394C7.64025 17.1887 7.6126 17.2554 7.6126 17.325C7.6126 17.3947 7.64025 17.4614 7.68948 17.5107C7.73871 17.5599 7.80548 17.5875 7.8751 17.5875C7.94472 17.5875 8.01149 17.5599 8.06071 17.5107C8.10994 17.4614 8.1376 17.3947 8.1376 17.325C8.1376 17.2554 8.10994 17.1887 8.06071 17.1394C8.01149 17.0902 7.94472 17.0625 7.8751 17.0625ZM8.9251 17.0625C8.85548 17.0625 8.78871 17.0902 8.73948 17.1394C8.69025 17.1887 8.6626 17.2554 8.6626 17.325C8.6626 17.3947 8.69025 17.4614 8.73948 17.5107C8.78871 17.5599 8.85548 17.5875 8.9251 17.5875C8.99472 17.5875 9.06149 17.5599 9.11071 17.5107C9.15994 17.4614 9.1876 17.3947 9.1876 17.325C9.1876 17.2554 9.15994 17.1887 9.11071 17.1394C9.06149 17.0902 8.99472 17.0625 8.9251 17.0625ZM9.9751 17.0625C9.90548 17.0625 9.83871 17.0902 9.78948 17.1394C9.74025 17.1887 9.7126 17.2554 9.7126 17.325C9.7126 17.3947 9.74025 17.4614 9.78948 17.5107C9.83871 17.5599 9.90548 17.5875 9.9751 17.5875C10.0447 17.5875 10.1115 17.5599 10.1607 17.5107C10.2099 17.4614 10.2376 17.3947 10.2376 17.325C10.2376 17.2554 10.2099 17.1887 10.1607 17.1394C10.1115 17.0902 10.0447 17.0625 9.9751 17.0625ZM11.0251 17.0625C10.9555 17.0625 10.8887 17.0902 10.8395 17.1394C10.7903 17.1887 10.7626 17.2554 10.7626 17.325C10.7626 17.3947 10.7903 17.4614 10.8395 17.5107C10.8887 17.5599 10.9555 17.5875 11.0251 17.5875C11.0947 17.5875 11.1615 17.5599 11.2107 17.5107C11.2599 17.4614 11.2876 17.3947 11.2876 17.325C11.2876 17.2554 11.2599 17.1887 11.2107 17.1394C11.1615 17.0902 11.0947 17.0625 11.0251 17.0625ZM12.0751 17.0625C12.0055 17.0625 11.9387 17.0902 11.8895 17.1394C11.8403 17.1887 11.8126 17.2554 11.8126 17.325C11.8126 17.3947 11.8403 17.4614 11.8895 17.5107C11.9387 17.5599 12.0055 17.5875 12.0751 17.5875C12.1447 17.5875 12.2115 17.5599 12.2607 17.5107C12.3099 17.4614 12.3376 17.3947 12.3376 17.325C12.3376 17.2554 12.3099 17.1887 12.2607 17.1394C12.2115 17.0902 12.1447 17.0625 12.0751 17.0625ZM13.1251 17.0625C13.0555 17.0625 12.9887 17.0902 12.9395 17.1394C12.8903 17.1887 12.8626 17.2554 12.8626 17.325C12.8626 17.3947 12.8903 17.4614 12.9395 17.5107C12.9887 17.5599 13.0555 17.5875 13.1251 17.5875C13.1947 17.5875 13.2615 17.5599 13.3107 17.5107C13.3599 17.4614 13.3876 17.3947 13.3876 17.325C13.3876 17.2554 13.3599 17.1887 13.3107 17.1394C13.2615 17.0902 13.1947 17.0625 13.1251 17.0625ZM14.1751 17.0625C14.1055 17.0625 14.0387 17.0902 13.9895 17.1394C13.9403 17.1887 13.9126 17.2554 13.9126 17.325C13.9126 17.3947 13.9403 17.4614 13.9895 17.5107C14.0387 17.5599 14.1055 17.5875 14.1751 17.5875C14.2447 17.5875 14.3115 17.5599 14.3607 17.5107C14.4099 17.4614 14.4376 17.3947 14.4376 17.325C14.4376 17.2554 14.4099 17.1887 14.3607 17.1394C14.3115 17.0902 14.2447 17.0625 14.1751 17.0625ZM15.2251 17.0625C15.1555 17.0625 15.0887 17.0902 15.0395 17.1394C14.9903 17.1887 14.9626 17.2554 14.9626 17.325C14.9626 17.3947 14.9903 17.4614 15.0395 17.5107C15.0887 17.5599 15.1555 17.5875 15.2251 17.5875C15.2947 17.5875 15.3615 17.5599 15.4107 17.5107C15.4599 17.4614 15.4876 17.3947 15.4876 17.325C15.4876 17.2554 15.4599 17.1887 15.4107 17.1394C15.3615 17.0902 15.2947 17.0625 15.2251 17.0625ZM16.2751 17.0625C16.2055 17.0625 16.1387 17.0902 16.0895 17.1394C16.0403 17.1887 16.0126 17.2554 16.0126 17.325C16.0126 17.3947 16.0403 17.4614 16.0895 17.5107C16.1387 17.5599 16.2055 17.5875 16.2751 17.5875C16.3447 17.5875 16.4115 17.5599 16.4607 17.5107C16.5099 17.4614 16.5376 17.3947 16.5376 17.325C16.5376 17.2554 16.5099 17.1887 16.4607 17.1394C16.4115 17.0902 16.3447 17.0625 16.2751 17.0625Z" fill="black"/>
</svg>
