<svg width="200" height="200" viewBox="0 0 18 18" fill="none" xmlns="http://www.w3.org/2000/svg">
<path d="M9.00002 1.5C8.20454 1.5 7.68502 1.93673 7.41286 2.25H5.43752C3.87604 2.25 2.57148 3.38791 2.30349 4.875H2.06252C1.98798 4.87395 1.91398 4.88772 1.84481 4.91551C1.77564 4.94331 1.71268 4.98457 1.6596 5.03691C1.60652 5.08925 1.56437 5.15161 1.5356 5.22038C1.50683 5.28915 1.49201 5.36295 1.49201 5.4375C1.49201 5.51205 1.50683 5.58585 1.5356 5.65462C1.56437 5.72339 1.60652 5.78575 1.6596 5.83809C1.71268 5.89043 1.77564 5.93169 1.84481 5.95949C1.91398 5.98728 1.98798 6.00105 2.06252 6H15.9375C16.0121 6.00105 16.0861 5.98728 16.1552 5.95949C16.2244 5.93169 16.2874 5.89043 16.3404 5.83809C16.3935 5.78575 16.4357 5.72339 16.4644 5.65462C16.4932 5.58585 16.508 5.51205 16.508 5.4375C16.508 5.36295 16.4932 5.28915 16.4644 5.22038C16.4357 5.15161 16.3935 5.08925 16.3404 5.03691C16.2874 4.98457 16.2244 4.94331 16.1552 4.91551C16.0861 4.88772 16.0121 4.87395 15.9375 4.875H15.6966C15.4286 3.38791 14.124 2.25 12.5625 2.25H10.5872C10.315 1.93673 9.7955 1.5 9.00002 1.5ZM5.43752 3.375H7.5696C7.64332 3.38993 7.71928 3.38993 7.79299 3.375H10.2056C10.2795 3.39003 10.3558 3.39003 10.4297 3.375H12.5625C13.5128 3.375 14.3038 4.00619 14.5467 4.875H3.45339C3.69626 4.00619 4.48728 3.375 5.43752 3.375ZM2.25002 6.75V8.27783L1.56374 7.93433C1.48011 7.89097 1.38693 7.86931 1.29275 7.87134C1.16639 7.87414 1.04466 7.91942 0.947178 7.99986C0.849697 8.0803 0.782143 8.19123 0.755407 8.31475C0.728672 8.43828 0.744311 8.56721 0.799805 8.68076C0.855298 8.79431 0.947413 8.88587 1.0613 8.94067L2.25002 9.53467V13.3125C2.25002 14.652 3.34804 15.75 4.68752 15.75H13.3125C14.652 15.75 15.75 14.652 15.75 13.3125V9.53467L16.9387 8.94067C17.0539 8.88521 17.1467 8.7922 17.2019 8.67696C17.2571 8.56172 17.2714 8.43112 17.2425 8.30664C17.2136 8.18217 17.1432 8.07125 17.0429 7.99213C16.9425 7.91301 16.8182 7.87041 16.6904 7.87134C16.602 7.87205 16.5149 7.89363 16.4363 7.93433L15.75 8.27783V6.75H14.625V9.08057C14.61 9.15452 14.61 9.23074 14.625 9.30469V13.3125C14.625 14.0438 14.0438 14.625 13.3125 14.625H4.68752C3.95625 14.625 3.37502 14.0438 3.37502 13.3125V9.30542C3.38995 9.23171 3.38995 9.15575 3.37502 9.08203V6.75H2.25002Z" fill="black"/>
</svg>
